{
  "accessors": [
    {
      "bufferView": 2,
      "componentType": 5126,
      "count": 2076,
      "max": [
        0.7870748043060303,
        1.2622569799423218,
        2.612333297729492
      ],
      "min": [
        -0.7870748043060303,
        -1.4202443361282349,
        -2.004237174987793
      ],
      "type": "VEC3"
    },
    {
      "bufferView": 2,
      "byteOffset": 24912,
      "componentType": 5126,
      "count": 2076,
      "max": [
        0.9999767541885376,
        0.9999855756759644,
        0.9985190033912659
      ],
      "min": [
        -0.9999766945838928,
        -0.9998536109924316,
        -0.999299168586731
      ],
      "type": "VEC3"
    },
    {
      "bufferView": 1,
      "componentType": 5126,
      "count": 2076,
      "max": [
        0.8570788502693176,
        0.9503627419471741
      ],
      "min": [
        0.05029279366135597,
        0.10015156865119934
      ],
      "type": "VEC2"
    },
    {
      "bufferView": 0,
      "componentType": 5125,
      "count": 4476,
      "type": "SCALAR"
    },
    {
      "bufferView": 2,
      "byteOffset": 49824,
      "componentType": 5126,
      "count": 556,
      "max": [
        0.6310582160949707,
        0.42425477504730225,
        1.2781169414520264
      ],
      "min": [
        -0.6310582160949707,
        0.1864110231399536,
        0.985257625579834
      ],
      "type": "VEC3"
    },
    {
      "bufferView": 2,
      "byteOffset": 56496,
      "componentType": 5126,
      "count": 556,
      "max": [
        0.985830545425415,
        1.0,
        0.9757179021835327
      ],
      "min": [
        -0.9858306050300598,
        -1.0,
        -0.9892091751098633
      ],
      "type": "VEC3"
    },
    {
      "bufferView": 1,
      "byteOffset": 16608,
      "componentType": 5126,
      "count": 556,
      "max": [
        1.0,
        1.0
      ],
      "min": [
        0.0,
        0.0
      ],
      "type": "VEC2"
    },
    {
      "bufferView": 0,
      "byteOffset": 17904,
      "componentType": 5125,
      "count": 2736,
      "type": "SCALAR"
    }
  ],
  "asset": {
    "extras": {
      "author": "Fecalis (https://sketchfab.com/vpvlolhyk)",
      "license": "CC-BY-4.0 (http://creativecommons.org/licenses/by/4.0/)",
      "source": "https://sketchfab.com/3d-models/shrimp-low-poly-652650059ff949b39bbed3bfc34d5e87",
      "title": "Shrimp [Low Poly]"
    },
    "generator": "Sketchfab-15.32.0",
    "version": "2.0"
  },
  "bufferViews": [
    {
      "buffer": 0,
      "byteLength": 28848,
      "name": "floatBufferViews",
      "target": 34963
    },
    {
      "buffer": 0,
      "byteLength": 21056,
      "byteOffset": 28848,
      "byteStride": 8,
      "name": "floatBufferViews",
      "target": 34962
    },
    {
      "buffer": 0,
      "byteLength": 63168,
      "byteOffset": 49904,
      "byteStride": 12,
      "name": "floatBufferViews",
      "target": 34962
    }
  ],
  "buffers": [
    {
      "byteLength": 113072,
      "uri": "scene.bin"
    }
  ],
  "extensionsUsed": [
    "KHR_materials_specular"
  ],
  "images": [
    {
      "uri": "textures/main_baseColor.jpeg"
    }
  ],
  "materials": [
    {
      "doubleSided": true,
      "extensions": {
        "KHR_materials_specular": {
          "specularColorFactor": [
            1.0,
            1.0,
            1.0
          ],
          "specularFactor": 0.15592550121009943
        }
      },
      "name": "main",
      "pbrMetallicRoughness": {
        "baseColorTexture": {
          "index": 0
        },
        "metallicFactor": 0.0,
        "roughnessFactor": 0.9895326471096041
      }
    },
    {
      "doubleSided": true,
      "extensions": {
        "KHR_materials_specular": {
          "specularColorFactor": [
            1.0,
            1.0,
            1.0
          ],
          "specularFactor": 0.770482594172508
        }
      },
      "name": "eyes",
      "pbrMetallicRoughness": {
        "baseColorFactor": [
          0.0,
          0.0,
          0.0,
          1.0
        ],
        "metallicFactor": 0.3202130409129215,
        "roughnessFactor": 0.351562
      }
    }
  ],
  "meshes": [
    {
      "name": "Object_0",
      "primitives": [
        {
          "attributes": {
            "NORMAL": 1,
            "POSITION": 0,
            "TEXCOORD_0": 2
          },
          "indices": 3,
          "material": 0,
          "mode": 4
        }
      ]
    },
    {
      "name": "Object_1",
      "primitives": [
        {
          "attributes": {
            "NORMAL": 5,
            "POSITION": 4,
            "TEXCOORD_0": 6
          },
          "indices": 7,
          "material": 1,
          "mode": 4
        }
      ]
    }
  ],
  "nodes": [
    {
      "children": [
        1
      ],
      "matrix": [
        1.0,
        0.0,
        0.0,
        0.0,
        0.0,
        2.220446049250313e-16,
        -1.0,
        0.0,
        0.0,
        1.0,
        2.220446049250313e-16,
        0.0,
        0.0,
        0.0,
        0.0,
        1.0
      ],
      "name": "Sketchfab_model"
    },
    {
      "children": [
        2
      ],
      "name": "root"
    },
    {
      "children": [
        3
      ],
      "matrix": [
        1.0,
        0.0,
        0.0,
        0.0,
        0.0,
        2.220446049250313e-16,
        1.0,
        0.0,
        0.0,
        -1.0,
        2.220446049250313e-16,
        0.0,
        0.0,
        0.0,
        0.0,
        1.0
      ],
      "name": "GLTF_SceneRootNode"
    },
    {
      "children": [
        4,
        5
      ],
      "matrix": [
        1.0,
        0.0,
        0.0,
        0.0,
        0.0,
        1.0,
        0.0,
        0.0,
        0.0,
        0.0,
        1.0,
        0.0,
        0.0,
        0.07205235958099365,
        0.005831718444824219,
        1.0
      ],
      "name": "shrimp_0"
    },
    {
      "mesh": 0,
      "name": "Object_4"
    },
    {
      "mesh": 1,
      "name": "Object_5"
    }
  ],
  "samplers": [
    {
      "magFilter": 9729,
      "minFilter": 9987,
      "wrapS": 10497,
      "wrapT": 10497
    }
  ],
  "scene": 0,
  "scenes": [
    {
      "name": "Sketchfab_Scene",
      "nodes": [
        0
      ]
    }
  ],
  "textures": [
    {
      "sampler": 0,
      "source": 0
    }
  ]
}
