{
  "accessors": [
    {
      "bufferView": 2,
      "componentType": 5126,
      "count": 439,
      "max": [
        -7.04632568359375,
        7.803792476654053,
        11.311513900756836
      ],
      "min": [
        -7.256960868835449,
        7.59268856048584,
        11.100879669189453
      ],
      "type": "VEC3"
    },
    {
      "bufferView": 2,
      "byteOffset": 5268,
      "componentType": 5126,
      "count": 439,
      "max": [
        0.9977796673774719,
        1.0,
        0.997779369354248
      ],
      "min": [
        -0.9977796673774719,
        -1.0,
        -0.997779369354248
      ],
      "type": "VEC3"
    },
    {
      "bufferView": 1,
      "componentType": 5126,
      "count": 439,
      "max": [
        1.0000001192092896,
        1.0
      ],
      "min": [
        0.0,
        0.0
      ],
      "type": "VEC2"
    },
    {
      "bufferView": 0,
      "componentType": 5125,
      "count": 2280,
      "type": "SCALAR"
    },
    {
      "bufferView": 2,
      "byteOffset": 10536,
      "componentType": 5126,
      "count": 5413,
      "max": [
        4.634973526000977,
        8.057790756225586,
        16.55747413635254
      ],
      "min": [
        -10.741355895996094,
        -0.5160068869590759,
        7.3519487380981445
      ],
      "type": "VEC3"
    },
    {
      "bufferView": 2,
      "byteOffset": 75492,
      "componentType": 5126,
      "count": 5413,
      "max": [
        0.9999947547912598,
        1.0,
        0.9999682307243347
      ],
      "min": [
        -0.9999982118606567,
        -0.9995647072792053,
        -0.9999347925186157
      ],
      "type": "VEC3"
    },
    {
      "bufferView": 1,
      "byteOffset": 3512,
      "componentType": 5126,
      "count": 5413,
      "max": [
        0.913576066493988,
        1.0
      ],
      "min": [
        0.0200192928314209,
        0.0
      ],
      "type": "VEC2"
    },
    {
      "bufferView": 0,
      "byteOffset": 9120,
      "componentType": 5125,
      "count": 32466,
      "type": "SCALAR"
    },
    {
      "bufferView": 2,
      "byteOffset": 140448,
      "componentType": 5126,
      "count": 439,
      "max": [
        -6.595788478851318,
        7.803792476654053,
        10.768486022949219
      ],
      "min": [
        -6.806423187255859,
        7.59268856048584,
        10.557851791381836
      ],
      "type": "VEC3"
    },
    {
      "bufferView": 2,
      "byteOffset": 145716,
      "componentType": 5126,
      "count": 439,
      "max": [
        0.9977796673774719,
        1.0,
        0.9977796077728271
      ],
      "min": [
        -0.9977796077728271,
        -1.0,
        -0.9977794289588928
      ],
      "type": "VEC3"
    },
    {
      "bufferView": 1,
      "byteOffset": 46816,
      "componentType": 5126,
      "count": 439,
      "max": [
        1.0000001192092896,
        1.0
      ],
      "min": [
        0.0,
        0.0
      ],
      "type": "VEC2"
    },
    {
      "bufferView": 0,
      "byteOffset": 138984,
      "componentType": 5125,
      "count": 2280,
      "type": "SCALAR"
    }
  ],
  "asset": {
    "extras": {
      "author": "Anette Rana (https://sketchfab.com/pertrosfoliea)",
      "license": "CC-BY-4.0 (http://creativecommons.org/licenses/by/4.0/)",
      "source": "https://sketchfab.com/3d-models/snake-9fbd8acf27914256bc2e673352b0e07b",
      "title": "Snake"
    },
    "generator": "Sketchfab-12.66.0",
    "version": "2.0"
  },
  "bufferViews": [
    {
      "buffer": 0,
      "byteLength": 148104,
      "name": "floatBufferViews",
      "target": 34963
    },
    {
      "buffer": 0,
      "byteLength": 50328,
      "byteOffset": 148104,
      "byteStride": 8,
      "name": "floatBufferViews",
      "target": 34962
    },
    {
      "buffer": 0,
      "byteLength": 150984,
      "byteOffset": 198432,
      "byteStride": 12,
      "name": "floatBufferViews",
      "target": 34962
    }
  ],
  "buffers": [
    {
      "byteLength": 349416,
      "uri": "scene.bin"
    }
  ],
  "extensionsRequired": [
    "KHR_materials_pbrSpecularGlossiness"
  ],
  "extensionsUsed": [
    "KHR_materials_pbrSpecularGlossiness"
  ],
  "materials": [
    {
      "doubleSided": true,
      "extensions": {
        "KHR_materials_pbrSpecularGlossiness": {
          "diffuseFactor": [
            0.0,
            0.0,
            0.0,
            1.0
          ],
          "glossinessFactor": 1.0,
          "specularFactor": [
            1.0,
            1.0,
            1.0
          ]
        }
      },
      "name": "eyes"
    },
    {
      "doubleSided": true,
      "extensions": {
        "KHR_materials_pbrSpecularGlossiness": {
          "diffuseFactor": [
            0.0,
            0.09649999999999988,
            0.02809999999999996,
            1.0
          ],
          "glossinessFactor": 1.0,
          "specularFactor": [
            0.64,
            0.64,
            0.64
          ]
        }
      },
      "name": "snake"
    }
  ],
  "meshes": [
    {
      "name": "pSphere1_eyes_0",
      "primitives": [
        {
          "attributes": {
            "NORMAL": 1,
            "POSITION": 0,
            "TEXCOORD_0": 2
          },
          "indices": 3,
          "material": 0,
          "mode": 4
        }
      ]
    },
    {
      "name": "pCube2_snake_0",
      "primitives": [
        {
          "attributes": {
            "NORMAL": 5,
            "POSITION": 4,
            "TEXCOORD_0": 6
          },
          "indices": 7,
          "material": 1,
          "mode": 4
        }
      ]
    },
    {
      "name": "pSphere2_eyes_0",
      "primitives": [
        {
          "attributes": {
            "NORMAL": 9,
            "POSITION": 8,
            "TEXCOORD_0": 10
          },
          "indices": 11,
          "material": 0,
          "mode": 4
        }
      ]
    }
  ],
  "nodes": [
    {
      "children": [
        1
      ],
      "matrix": [
        1.0,
        0.0,
        0.0,
        0.0,
        0.0,
        2.220446049250313e-16,
        -1.0,
        0.0,
        0.0,
        1.0,
        2.220446049250313e-16,
        0.0,
        0.0,
        0.0,
        0.0,
        1.0
      ],
      "name": "Sketchfab_model"
    },
    {
      "children": [
        2
      ],
      "matrix": [
        1.0,
        0.0,
        0.0,
        0.0,
        0.0,
        0.0,
        1.0,
        0.0,
        0.0,
        -1.0,
        0.0,
        0.0,
        0.0,
        0.0,
        0.0,
        1.0
      ],
      "name": "06d6b74c7cc9444c9ff52f215f0ba9ed.fbx"
    },
    {
      "children": [
        3
      ],
      "name": "RootNode"
    },
    {
      "children": [
        4,
        6,
        8
      ],
      "name": "group1"
    },
    {
      "children": [
        5
      ],
      "name": "pSphere1"
    },
    {
      "mesh": 0,
      "name": "pSphere1_eyes_0"
    },
    {
      "children": [
        7
      ],
      "name": "pCube2"
    },
    {
      "mesh": 1,
      "name": "pCube2_snake_0"
    },
    {
      "children": [
        9
      ],
      "name": "pSphere2"
    },
    {
      "mesh": 2,
      "name": "pSphere2_eyes_0"
    }
  ],
  "scene": 0,
  "scenes": [
    {
      "name": "Sketchfab_Scene",
      "nodes": [
        0
      ]
    }
  ]
}
