{
  "accessors": [
    {
      "bufferView": 2,
      "componentType": 5126,
      "count": 768,
      "max": [
        0.36756640672683716,
        1.7806336879730225,
        1.1572935581207275
      ],
      "min": [
        -0.36756640672683716,
        -0.9860126972198486,
        -0.9285844564437866
      ],
      "type": "VEC3"
    },
    {
      "bufferView": 2,
      "byteOffset": 9216,
      "componentType": 5126,
      "count": 768,
      "max": [
        0.9981080889701843,
        0.993486762046814,
        0.9944419264793396
      ],
      "min": [
        -0.9981080889701843,
        -0.9398314356803894,
        -0.9028867483139038
      ],
      "type": "VEC3"
    },
    {
      "bufferView": 1,
      "componentType": 5126,
      "count": 768,
      "max": [
        0.7500003576278687,
        0.8750000596046448
      ],
      "min": [
        0.24999994039535522,
        0.49999985098838806
      ],
      "type": "VEC2"
    },
    {
      "bufferView": 0,
      "componentType": 5125,
      "count": 2028,
      "type": "SCALAR"
    },
    {
      "bufferView": 2,
      "byteOffset": 18432,
      "componentType": 5126,
      "count": 466,
      "max": [
        0.2682863771915436,
        0.2184981107711792,
        0.9167201519012451
      ],
      "min": [
        -0.2682863771915436,
        -0.037039875984191895,
        0.4615117907524109
      ],
      "type": "VEC3"
    },
    {
      "bufferView": 2,
      "byteOffset": 24024,
      "componentType": 5126,
      "count": 466,
      "max": [
        0.9996459484100342,
        0.9584205746650696,
        0.9814132452011108
      ],
      "min": [
        -0.9996459484100342,
        -0.9987730979919434,
        -0.929338812828064
      ],
      "type": "VEC3"
    },
    {
      "bufferView": 1,
      "byteOffset": 6144,
      "componentType": 5126,
      "count": 466,
      "max": [
        0.3532811105251312,
        0.5000001788139343
      ],
      "min": [
        0.32222262024879456,
        0.4999997019767761
      ],
      "type": "VEC2"
    },
    {
      "bufferView": 0,
      "byteOffset": 8112,
      "componentType": 5125,
      "count": 1296,
      "type": "SCALAR"
    },
    {
      "bufferView": 2,
      "byteOffset": 29616,
      "componentType": 5126,
      "count": 287,
      "max": [
        0.2599647045135498,
        0.014982819557189941,
        1.0544503927230835
      ],
      "min": [
        -0.2599647045135498,
        -0.03881227970123291,
        0.4000932574272156
      ],
      "type": "VEC3"
    },
    {
      "bufferView": 2,
      "byteOffset": 33060,
      "componentType": 5126,
      "count": 287,
      "max": [
        0.9999281167984009,
        0.9584205746650696,
        0.9814132452011108
      ],
      "min": [
        -0.9999281167984009,
        -0.9478832483291626,
        -0.929338812828064
      ],
      "type": "VEC3"
    },
    {
      "bufferView": 1,
      "byteOffset": 9872,
      "componentType": 5126,
      "count": 287,
      "max": [
        0.35247802734375,
        0.5000001788139343
      ],
      "min": [
        0.3227616548538208,
        0.4999998211860657
      ],
      "type": "VEC2"
    },
    {
      "bufferView": 0,
      "byteOffset": 13296,
      "componentType": 5125,
      "count": 720,
      "type": "SCALAR"
    },
    {
      "bufferView": 2,
      "byteOffset": 36504,
      "componentType": 5126,
      "count": 270,
      "max": [
        0.161505788564682,
        1.652016520500183,
        0.9767828583717346
      ],
      "min": [
        -0.161505788564682,
        1.5955504179000854,
        0.9205000400543213
      ],
      "type": "VEC3"
    },
    {
      "bufferView": 2,
      "byteOffset": 39744,
      "componentType": 5126,
      "count": 270,
      "max": [
        0.994716465473175,
        0.999997079372406,
        0.9974349737167358
      ],
      "min": [
        -0.9947165846824646,
        -0.9999971389770508,
        -0.9974349141120911
      ],
      "type": "VEC3"
    },
    {
      "bufferView": 1,
      "byteOffset": 12168,
      "componentType": 5126,
      "count": 270,
      "max": [
        1.0,
        0.875
      ],
      "min": [
        0.0,
        0.0
      ],
      "type": "VEC2"
    },
    {
      "bufferView": 0,
      "byteOffset": 16176,
      "componentType": 5125,
      "count": 1248,
      "type": "SCALAR"
    },
    {
      "bufferView": 2,
      "byteOffset": 42984,
      "componentType": 5126,
      "count": 66,
      "max": [
        0.161505788564682,
        1.6346514225006104,
        0.9669326543807983
      ],
      "min": [
        -0.161505788564682,
        1.6130427122116089,
        0.9463677406311035
      ],
      "type": "VEC3"
    },
    {
      "bufferView": 2,
      "byteOffset": 43776,
      "componentType": 5126,
      "count": 66,
      "max": [
        0.994716227054596,
        0.4053219258785248,
        0.6646068096160889
      ],
      "min": [
        -0.994716465473175,
        -0.40086349844932556,
        -0.10263883322477341
      ],
      "type": "VEC3"
    },
    {
      "bufferView": 1,
      "byteOffset": 14328,
      "componentType": 5126,
      "count": 66,
      "max": [
        1.0,
        1.0
      ],
      "min": [
        0.0,
        0.875
      ],
      "type": "VEC2"
    },
    {
      "bufferView": 0,
      "byteOffset": 21168,
      "componentType": 5125,
      "count": 96,
      "type": "SCALAR"
    },
    {
      "bufferView": 2,
      "byteOffset": 44568,
      "componentType": 5126,
      "count": 288,
      "max": [
        0.12856322526931763,
        1.6432368755340576,
        1.1808319091796875
      ],
      "min": [
        -0.12856322526931763,
        1.3523972034454346,
        0.996012806892395
      ],
      "type": "VEC3"
    },
    {
      "bufferView": 2,
      "byteOffset": 48024,
      "componentType": 5126,
      "count": 288,
      "max": [
        0.8949758410453796,
        0.6189280152320862,
        0.9998100399971008
      ],
      "min": [
        -0.8949759006500244,
        -0.991996705532074,
        -0.9795719981193542
      ],
      "type": "VEC3"
    },
    {
      "bufferView": 1,
      "byteOffset": 14856,
      "componentType": 5126,
      "count": 288,
      "max": [
        0.37500011920928955,
        0.8750002384185791
      ],
      "min": [
        -0.1475607454776764,
        0.7499997615814209
      ],
      "type": "VEC2"
    },
    {
      "bufferView": 0,
      "byteOffset": 21552,
      "componentType": 5125,
      "count": 744,
      "type": "SCALAR"
    },
    {
      "bufferView": 2,
      "byteOffset": 51480,
      "componentType": 5126,
      "count": 46,
      "max": [
        0.20741905272006989,
        1.5773779153823853,
        1.0307338237762451
      ],
      "min": [
        -0.20741905272006989,
        1.331426739692688,
        0.6174759864807129
      ],
      "type": "VEC3"
    },
    {
      "bufferView": 2,
      "byteOffset": 52032,
      "componentType": 5126,
      "count": 46,
      "max": [
        0.9971081614494324,
        0.5281275510787964,
        0.9735741019248962
      ],
      "min": [
        -0.9971081614494324,
        -0.9710962176322937,
        -0.8843705654144287
      ],
      "type": "VEC3"
    },
    {
      "bufferView": 1,
      "byteOffset": 17160,
      "componentType": 5126,
      "count": 46,
      "max": [
        0.7500001192092896,
        0.7500002384185791
      ],
      "min": [
        0.24999994039535522,
        0.7499997615814209
      ],
      "type": "VEC2"
    },
    {
      "bufferView": 0,
      "byteOffset": 24528,
      "componentType": 5125,
      "count": 108,
      "type": "SCALAR"
    },
    {
      "bufferView": 2,
      "byteOffset": 52584,
      "componentType": 5126,
      "count": 94,
      "max": [
        0.31729376316070557,
        0.5450011491775513,
        -0.12783896923065186
      ],
      "min": [
        -0.31729376316070557,
        0.20162630081176758,
        -0.6202040910720825
      ],
      "type": "VEC3"
    },
    {
      "bufferView": 2,
      "byteOffset": 53712,
      "componentType": 5126,
      "count": 94,
      "max": [
        0.9238640069961548,
        0.7189096808433533,
        0.48265340924263
      ],
      "min": [
        -0.9238641262054443,
        -0.7661542892456055,
        -0.8297610878944397
      ],
      "type": "VEC3"
    },
    {
      "bufferView": 1,
      "byteOffset": 17528,
      "componentType": 5126,
      "count": 94,
      "max": [
        0.625,
        0.5175663828849792
      ],
      "min": [
        0.43333321809768677,
        0.4999998211860657
      ],
      "type": "VEC2"
    },
    {
      "bufferView": 0,
      "byteOffset": 24960,
      "componentType": 5125,
      "count": 240,
      "type": "SCALAR"
    },
    {
      "bufferView": 2,
      "byteOffset": 54840,
      "componentType": 5126,
      "count": 161,
      "max": [
        0.4546642303466797,
        1.1471633911132813,
        0.7614902257919312
      ],
      "min": [
        -0.4546642303466797,
        0.36927127838134766,
        -0.18986785411834717
      ],
      "type": "VEC3"
    },
    {
      "bufferView": 2,
      "byteOffset": 56772,
      "componentType": 5126,
      "count": 161,
      "max": [
        0.9881166815757751,
        0.7678740620613098,
        0.783488392829895
      ],
      "min": [
        -0.9881166815757751,
        -0.7558060884475708,
        -0.8405338525772095
      ],
      "type": "VEC3"
    },
    {
      "bufferView": 1,
      "byteOffset": 18280,
      "componentType": 5126,
      "count": 161,
      "max": [
        0.625,
        0.7500001192092896
      ],
      "min": [
        0.4257446825504303,
        0.49999991059303284
      ],
      "type": "VEC2"
    },
    {
      "bufferView": 0,
      "byteOffset": 25920,
      "componentType": 5125,
      "count": 408,
      "type": "SCALAR"
    },
    {
      "bufferView": 2,
      "byteOffset": 58704,
      "componentType": 5126,
      "count": 85,
      "max": [
        0.059061288833618164,
        -0.9382538795471191,
        -0.8535565137863159
      ],
      "min": [
        -0.059061288833618164,
        -1.6535537242889404,
        -1.4160012006759644
      ],
      "type": "VEC3"
    },
    {
      "bufferView": 2,
      "byteOffset": 59724,
      "componentType": 5126,
      "count": 85,
      "max": [
        0.9908010959625244,
        0.5772601366043091,
        0.7833508253097534
      ],
      "min": [
        -0.9908010959625244,
        -0.9808154702186584,
        -0.9904764890670776
      ],
      "type": "VEC3"
    },
    {
      "bufferView": 1,
      "byteOffset": 19568,
      "componentType": 5126,
      "count": 85,
      "max": [
        0.7500001192092896,
        0.5000001788139343
      ],
      "min": [
        0.2499999701976776,
        0.3749999701976776
      ],
      "type": "VEC2"
    },
    {
      "bufferView": 0,
      "byteOffset": 27552,
      "componentType": 5125,
      "count": 240,
      "type": "SCALAR"
    }
  ],
  "asset": {
    "extras": {
      "author": "Akinremi (https://sketchfab.com/Akinremi)",
      "license": "CC-BY-4.0 (http://creativecommons.org/licenses/by/4.0/)",
      "source": "https://sketchfab.com/3d-models/parrot-c31bd96d6a614729ac687b812d51f516",
      "title": "Parrot"
    },
    "generator": "Sketchfab-15.27.0",
    "version": "2.0"
  },
  "bufferViews": [
    {
      "buffer": 0,
      "byteLength": 28512,
      "name": "floatBufferViews",
      "target": 34963
    },
    {
      "buffer": 0,
      "byteLength": 20248,
      "byteOffset": 28512,
      "byteStride": 8,
      "name": "floatBufferViews",
      "target": 34962
    },
    {
      "buffer": 0,
      "byteLength": 60744,
      "byteOffset": 48760,
      "byteStride": 12,
      "name": "floatBufferViews",
      "target": 34962
    }
  ],
  "buffers": [
    {
      "byteLength": 109504,
      "uri": "scene.bin"
    }
  ],
  "materials": [
    {
      "doubleSided": true,
      "name": "Material",
      "pbrMetallicRoughness": {
        "baseColorFactor": [
          0.387121,
          0.8,
          0.0203796,
          1.0
        ],
        "metallicFactor": 0.0,
        "roughnessFactor": 0.4
      }
    },
    {
      "doubleSided": true,
      "name": "Material.001",
      "pbrMetallicRoughness": {
        "baseColorFactor": [
          0.8,
          0.602625,
          0.299083,
          1.0
        ],
        "metallicFactor": 0.0,
        "roughnessFactor": 0.5
      }
    },
    {
      "doubleSided": true,
      "name": "Material.002",
      "pbrMetallicRoughness": {
        "baseColorFactor": [
          0.8,
          0.602625,
          0.299083,
          1.0
        ],
        "metallicFactor": 0.0,
        "roughnessFactor": 0.0
      }
    },
    {
      "doubleSided": true,
      "name": "Material.003",
      "pbrMetallicRoughness": {
        "baseColorFactor": [
          0.8,
          0.602625,
          0.299083,
          1.0
        ],
        "metallicFactor": 0.0,
        "roughnessFactor": 0.5
      }
    },
    {
      "doubleSided": true,
      "name": "Material.004",
      "pbrMetallicRoughness": {
        "baseColorFactor": [
          0.00124105,
          0.00124105,
          0.00124105,
          1.0
        ],
        "metallicFactor": 0.0,
        "roughnessFactor": 0.5
      }
    },
    {
      "doubleSided": true,
      "name": "Material.005",
      "pbrMetallicRoughness": {
        "baseColorFactor": [
          0.269734,
          0.00596152,
          0.0111099,
          1.0
        ],
        "metallicFactor": 0.0,
        "roughnessFactor": 0.0
      }
    },
    {
      "doubleSided": true,
      "name": "Material.006",
      "pbrMetallicRoughness": {
        "baseColorFactor": [
          0.00124105,
          0.00124105,
          0.00124105,
          1.0
        ],
        "metallicFactor": 0.0,
        "roughnessFactor": 0.5
      }
    },
    {
      "doubleSided": true,
      "name": "Material.007",
      "pbrMetallicRoughness": {
        "baseColorFactor": [
          0.00845922,
          0.0604503,
          0.00594654,
          1.0
        ],
        "metallicFactor": 0.0,
        "roughnessFactor": 0.5
      }
    },
    {
      "doubleSided": true,
      "name": "Material.008",
      "pbrMetallicRoughness": {
        "baseColorFactor": [
          0.027383,
          0.133614,
          0.00715639,
          1.0
        ],
        "metallicFactor": 0.0,
        "roughnessFactor": 0.5
      }
    },
    {
      "doubleSided": true,
      "name": "Material.009",
      "pbrMetallicRoughness": {
        "baseColorFactor": [
          0.00845922,
          0.0604503,
          0.00594654,
          1.0
        ],
        "metallicFactor": 0.0,
        "roughnessFactor": 0.5
      }
    }
  ],
  "meshes": [
    {
      "name": "Object_0",
      "primitives": [
        {
          "attributes": {
            "NORMAL": 1,
            "POSITION": 0,
            "TEXCOORD_0": 2
          },
          "indices": 3,
          "material": 0,
          "mode": 4
        }
      ]
    },
    {
      "name": "Object_1",
      "primitives": [
        {
          "attributes": {
            "NORMAL": 5,
            "POSITION": 4,
            "TEXCOORD_0": 6
          },
          "indices": 7,
          "material": 1,
          "mode": 4
        }
      ]
    },
    {
      "name": "Object_2",
      "primitives": [
        {
          "attributes": {
            "NORMAL": 9,
            "POSITION": 8,
            "TEXCOORD_0": 10
          },
          "indices": 11,
          "material": 2,
          "mode": 4
        }
      ]
    },
    {
      "name": "Object_3",
      "primitives": [
        {
          "attributes": {
            "NORMAL": 13,
            "POSITION": 12,
            "TEXCOORD_0": 14
          },
          "indices": 15,
          "material": 3,
          "mode": 4
        }
      ]
    },
    {
      "name": "Object_4",
      "primitives": [
        {
          "attributes": {
            "NORMAL": 17,
            "POSITION": 16,
            "TEXCOORD_0": 18
          },
          "indices": 19,
          "material": 4,
          "mode": 4
        }
      ]
    },
    {
      "name": "Object_5",
      "primitives": [
        {
          "attributes": {
            "NORMAL": 21,
            "POSITION": 20,
            "TEXCOORD_0": 22
          },
          "indices": 23,
          "material": 5,
          "mode": 4
        }
      ]
    },
    {
      "name": "Object_6",
      "primitives": [
        {
          "attributes": {
            "NORMAL": 25,
            "POSITION": 24,
            "TEXCOORD_0": 26
          },
          "indices": 27,
          "material": 6,
          "mode": 4
        }
      ]
    },
    {
      "name": "Object_7",
      "primitives": [
        {
          "attributes": {
            "NORMAL": 29,
            "POSITION": 28,
            "TEXCOORD_0": 30
          },
          "indices": 31,
          "material": 7,
          "mode": 4
        }
      ]
    },
    {
      "name": "Object_8",
      "primitives": [
        {
          "attributes": {
            "NORMAL": 33,
            "POSITION": 32,
            "TEXCOORD_0": 34
          },
          "indices": 35,
          "material": 8,
          "mode": 4
        }
      ]
    },
    {
      "name": "Object_9",
      "primitives": [
        {
          "attributes": {
            "NORMAL": 37,
            "POSITION": 36,
            "TEXCOORD_0": 38
          },
          "indices": 39,
          "material": 9,
          "mode": 4
        }
      ]
    }
  ],
  "nodes": [
    {
      "children": [
        1
      ],
      "matrix": [
        1.0,
        0.0,
        0.0,
        0.0,
        0.0,
        2.220446049250313e-16,
        -1.0,
        0.0,
        0.0,
        1.0,
        2.220446049250313e-16,
        0.0,
        0.0,
        0.0,
        0.0,
        1.0
      ],
      "name": "Sketchfab_model"
    },
    {
      "children": [
        2
      ],
      "name": "root"
    },
    {
      "children": [
        3
      ],
      "matrix": [
        1.0,
        0.0,
        0.0,
        0.0,
        0.0,
        2.220446049250313e-16,
        1.0,
        0.0,
        0.0,
        -1.0,
        2.220446049250313e-16,
        0.0,
        0.0,
        0.0,
        0.0,
        1.0
      ],
      "name": "GLTF_SceneRootNode"
    },
    {
      "children": [
        4,
        5,
        6,
        7,
        8,
        9,
        10,
        11,
        12,
        13
      ],
      "name": "Cube_0"
    },
    {
      "mesh": 0,
      "name": "Object_4"
    },
    {
      "mesh": 1,
      "name": "Object_5"
    },
    {
      "mesh": 2,
      "name": "Object_6"
    },
    {
      "mesh": 3,
      "name": "Object_7"
    },
    {
      "mesh": 4,
      "name": "Object_8"
    },
    {
      "mesh": 5,
      "name": "Object_9"
    },
    {
      "mesh": 6,
      "name": "Object_10"
    },
    {
      "mesh": 7,
      "name": "Object_11"
    },
    {
      "mesh": 8,
      "name": "Object_12"
    },
    {
      "mesh": 9,
      "name": "Object_13"
    }
  ],
  "scene": 0,
  "scenes": [
    {
      "name": "Sketchfab_Scene",
      "nodes": [
        0
      ]
    }
  ]
}
